<svg xmlns="http://www.w3.org/2000/svg" xmlns:xlink="http://www.w3.org/1999/xlink" width="300" zoomAndPan="magnify" viewBox="0 0 224.87999 135.000003" height="180" preserveAspectRatio="xMidYMid meet" version="1.2"><defs><clipPath id="43c2e6d98a"><path d="M 0.765625 0 L 223.992188 0 L 223.992188 134.007812 L 0.765625 134.007812 Z M 0.765625 0 "/></clipPath><clipPath id="268450e9dc"><path d="M 128.460938 0 L 223.992188 0 L 223.992188 134.007812 L 128.460938 134.007812 Z M 128.460938 0 "/></clipPath><clipPath id="11c93cd5f5"><path d="M 184.09375 0 C 206.195312 0 224.113281 30.523438 224.113281 68.179688 C 224.113281 105.835938 206.195312 136.359375 184.09375 136.359375 L 168.480469 136.359375 C 146.378906 136.359375 128.460938 105.835938 128.460938 68.179688 C 128.460938 30.523438 146.378906 0 168.480469 0 Z M 184.09375 0 "/></clipPath><clipPath id="c25f4df4b6"><path d="M 0.460938 0 L 95.992188 0 L 95.992188 134.007812 L 0.460938 134.007812 Z M 0.460938 0 "/></clipPath><clipPath id="64436511c4"><path d="M 56.09375 0 C 78.195312 0 96.113281 30.523438 96.113281 68.179688 C 96.113281 105.835938 78.195312 136.359375 56.09375 136.359375 L 40.480469 136.359375 C 18.378906 136.359375 0.460938 105.835938 0.460938 68.179688 C 0.460938 30.523438 18.378906 0 40.480469 0 Z M 56.09375 0 "/></clipPath><clipPath id="6a9cd062bd"><rect x="0" width="96" y="0" height="135"/></clipPath><clipPath id="bf546ae9a2"><path d="M 0.765625 0 L 134.390625 0 L 134.390625 134.007812 L 0.765625 134.007812 Z M 0.765625 0 "/></clipPath><clipPath id="e619af1120"><path d="M 17.742188 0 L 117.417969 0 C 121.917969 0 126.238281 1.789062 129.421875 4.972656 C 132.605469 8.15625 134.390625 12.472656 134.390625 16.972656 L 134.390625 117.25 C 134.390625 121.753906 132.605469 126.070312 129.421875 129.253906 C 126.238281 132.4375 121.917969 134.226562 117.417969 134.226562 L 17.742188 134.226562 C 13.238281 134.226562 8.921875 132.4375 5.738281 129.253906 C 2.554688 126.070312 0.765625 121.753906 0.765625 117.25 L 0.765625 16.972656 C 0.765625 12.472656 2.554688 8.15625 5.738281 4.972656 C 8.921875 1.789062 13.238281 0 17.742188 0 Z M 17.742188 0 "/></clipPath><clipPath id="9c2648d843"><path d="M 0.765625 0 L 134.390625 0 L 134.390625 134.007812 L 0.765625 134.007812 Z M 0.765625 0 "/></clipPath><clipPath id="503f4edbbe"><path d="M 17.742188 0 L 117.417969 0 C 121.917969 0 126.238281 1.789062 129.421875 4.972656 C 132.605469 8.15625 134.390625 12.472656 134.390625 16.972656 L 134.390625 117.25 C 134.390625 121.753906 132.605469 126.070312 129.421875 129.253906 C 126.238281 132.4375 121.917969 134.226562 117.417969 134.226562 L 17.742188 134.226562 C 13.238281 134.226562 8.921875 132.4375 5.738281 129.253906 C 2.554688 126.070312 0.765625 121.753906 0.765625 117.25 L 0.765625 16.972656 C 0.765625 12.472656 2.554688 8.15625 5.738281 4.972656 C 8.921875 1.789062 13.238281 0 17.742188 0 Z M 17.742188 0 "/></clipPath><clipPath id="187fb43d05"><rect x="0" width="135" y="0" height="135"/></clipPath><clipPath id="4bd7c5e10c"><path d="M 90.488281 0 L 223.992188 0 L 223.992188 134.007812 L 90.488281 134.007812 Z M 90.488281 0 "/></clipPath><clipPath id="a5232f78ec"><path d="M 107.460938 0 L 207.136719 0 C 211.640625 0 215.957031 1.789062 219.140625 4.972656 C 222.324219 8.15625 224.113281 12.472656 224.113281 16.972656 L 224.113281 117.25 C 224.113281 121.753906 222.324219 126.070312 219.140625 129.253906 C 215.957031 132.4375 211.640625 134.226562 207.136719 134.226562 L 107.460938 134.226562 C 102.960938 134.226562 98.644531 132.4375 95.460938 129.253906 C 92.277344 126.070312 90.488281 121.753906 90.488281 117.25 L 90.488281 16.972656 C 90.488281 12.472656 92.277344 8.15625 95.460938 4.972656 C 98.644531 1.789062 102.960938 0 107.460938 0 Z M 107.460938 0 "/></clipPath><clipPath id="ac5c74382a"><path d="M 0.488281 0 L 133.992188 0 L 133.992188 134.007812 L 0.488281 134.007812 Z M 0.488281 0 "/></clipPath><clipPath id="454ae574ca"><path d="M 17.460938 0 L 117.136719 0 C 121.640625 0 125.957031 1.789062 129.140625 4.972656 C 132.324219 8.15625 134.113281 12.472656 134.113281 16.972656 L 134.113281 117.25 C 134.113281 121.753906 132.324219 126.070312 129.140625 129.253906 C 125.957031 132.4375 121.640625 134.226562 117.136719 134.226562 L 17.460938 134.226562 C 12.960938 134.226562 8.644531 132.4375 5.460938 129.253906 C 2.277344 126.070312 0.488281 121.753906 0.488281 117.25 L 0.488281 16.972656 C 0.488281 12.472656 2.277344 8.15625 5.460938 4.972656 C 8.644531 1.789062 12.960938 0 17.460938 0 Z M 17.460938 0 "/></clipPath><clipPath id="186a7da06c"><rect x="0" width="134" y="0" height="135"/></clipPath><clipPath id="73e2287cda"><path d="M 12.214844 0 L 213 0 L 213 134.007812 L 12.214844 134.007812 Z M 12.214844 0 "/></clipPath><clipPath id="0c538c3323"><path d="M 190.792969 0 C 202.851562 0 212.625 30.523438 212.625 68.179688 C 212.625 105.835938 202.851562 136.359375 190.792969 136.359375 L 34.046875 136.359375 C 21.988281 136.359375 12.214844 105.835938 12.214844 68.179688 C 12.214844 30.523438 21.988281 0 34.046875 0 Z M 190.792969 0 "/></clipPath><clipPath id="d035d4ab0f"><path d="M 0.214844 0 L 200.796875 0 L 200.796875 134.007812 L 0.214844 134.007812 Z M 0.214844 0 "/></clipPath><clipPath id="cceed2dfcb"><path d="M 178.792969 0 C 190.851562 0 200.625 30.523438 200.625 68.179688 C 200.625 105.835938 190.851562 136.359375 178.792969 136.359375 L 22.046875 136.359375 C 9.988281 136.359375 0.214844 105.835938 0.214844 68.179688 C 0.214844 30.523438 9.988281 0 22.046875 0 Z M 178.792969 0 "/></clipPath><clipPath id="c65ded0b54"><rect x="0" width="201" y="0" height="135"/></clipPath><clipPath id="f89a8a7f78"><path d="M 71.328125 27.089844 L 152.824219 27.089844 L 152.824219 108.585938 L 71.328125 108.585938 Z M 71.328125 27.089844 "/></clipPath><clipPath id="c4bd4b11e6"><rect x="0" width="224" y="0" height="135"/></clipPath></defs><g id="19c7e98816"><g clip-rule="nonzero" clip-path="url(#43c2e6d98a)"><g transform="matrix(1,0,0,1,0.000000000000000111,-0.000000000000003367)"><g clip-path="url(#c4bd4b11e6)"><g clip-rule="nonzero" clip-path="url(#268450e9dc)"><g clip-rule="nonzero" clip-path="url(#11c93cd5f5)"><g transform="matrix(1,0,0,1,128,-0.000000000000003367)"><g id="cbcbab7b43" clip-path="url(#6a9cd062bd)"><g clip-rule="nonzero" clip-path="url(#c25f4df4b6)"><g clip-rule="nonzero" clip-path="url(#64436511c4)"><path style=" stroke:none;fill-rule:nonzero;fill:#f14b5f;fill-opacity:1;" d="M 0.460938 0 L 96.113281 0 L 96.113281 136.378906 L 0.460938 136.378906 Z M 0.460938 0 "/></g></g></g></g></g></g><g clip-rule="nonzero" clip-path="url(#bf546ae9a2)"><g clip-rule="nonzero" clip-path="url(#e619af1120)"><g transform="matrix(1,0,0,1,0.000000000000000111,-0.000000000000003367)"><g id="89834e79d4" clip-path="url(#187fb43d05)"><g clip-rule="nonzero" clip-path="url(#9c2648d843)"><g clip-rule="nonzero" clip-path="url(#503f4edbbe)"><path style=" stroke:none;fill-rule:nonzero;fill:#0cc0df;fill-opacity:1;" d="M 0.765625 0 L 134.390625 0 L 134.390625 134.148438 L 0.765625 134.148438 Z M 0.765625 0 "/></g></g></g></g></g></g><g clip-rule="nonzero" clip-path="url(#4bd7c5e10c)"><g clip-rule="nonzero" clip-path="url(#a5232f78ec)"><g transform="matrix(1,0,0,1,90,-0.000000000000003367)"><g id="f7758fb81e" clip-path="url(#186a7da06c)"><g clip-rule="nonzero" clip-path="url(#ac5c74382a)"><g clip-rule="nonzero" clip-path="url(#454ae574ca)"><path style=" stroke:none;fill-rule:nonzero;fill:#f14b5f;fill-opacity:1;" d="M 0.488281 0 L 134.113281 0 L 134.113281 134.148438 L 0.488281 134.148438 Z M 0.488281 0 "/></g></g></g></g></g></g><g clip-rule="nonzero" clip-path="url(#73e2287cda)"><g clip-rule="nonzero" clip-path="url(#0c538c3323)"><g transform="matrix(1,0,0,1,12,-0.000000000000003367)"><g id="9b4d66855f" clip-path="url(#c65ded0b54)"><g clip-rule="nonzero" clip-path="url(#d035d4ab0f)"><g clip-rule="nonzero" clip-path="url(#cceed2dfcb)"><path style=" stroke:none;fill-rule:nonzero;fill:#ffffff;fill-opacity:1;" d="M 0.214844 0 L 200.496094 0 L 200.496094 136.359375 L 0.214844 136.359375 Z M 0.214844 0 "/></g></g></g></g></g></g><g clip-rule="nonzero" clip-path="url(#f89a8a7f78)"><path style=" stroke:none;fill-rule:nonzero;fill:#000000;fill-opacity:1;" d="M 144.261719 58.9375 L 121.660156 58.9375 L 121.660156 36.335938 C 121.660156 31.238281 117.515625 27.089844 112.417969 27.089844 C 107.320312 27.089844 103.171875 31.238281 103.171875 36.335938 L 103.171875 58.9375 L 80.570312 58.9375 C 75.472656 58.9375 71.324219 63.082031 71.324219 68.179688 C 71.324219 73.277344 75.472656 77.425781 80.570312 77.425781 L 103.171875 77.425781 L 103.171875 100.027344 C 103.171875 105.125 107.320312 109.273438 112.417969 109.273438 C 117.515625 109.273438 121.660156 105.125 121.660156 100.027344 L 121.660156 77.425781 L 144.261719 77.425781 C 149.359375 77.425781 153.507812 73.277344 153.507812 68.179688 C 153.507812 63.082031 149.359375 58.9375 144.261719 58.9375 "/></g></g></g></g></g></svg>